<svg width="598" height="75" viewBox="0 0 598 75" fill="none" xmlns="http://www.w3.org/2000/svg">
<path d="M94.6709 38.8779H91.0908V46H87.8789V27.5156H94.3789C96.5117 27.5156 98.1579 27.9938 99.3174 28.9502C100.477 29.9066 101.057 31.2904 101.057 33.1016C101.057 34.3372 100.756 35.374 100.155 36.2119C99.5628 37.0413 98.7334 37.6803 97.667 38.1289L101.818 45.835V46H98.3779L94.6709 38.8779ZM91.0908 36.3008H94.3916C95.4749 36.3008 96.3213 36.0299 96.9307 35.4883C97.54 34.9382 97.8447 34.1891 97.8447 33.2412C97.8447 32.251 97.5612 31.485 96.9941 30.9434C96.4355 30.4017 95.5977 30.1224 94.4805 30.1055H91.0908V36.3008ZM109.854 46.2539C107.899 46.2539 106.312 45.6403 105.094 44.4131C103.883 43.1774 103.278 41.5355 103.278 39.4873V39.1064C103.278 37.7354 103.541 36.5124 104.065 35.4375C104.599 34.3542 105.343 33.512 106.3 32.9111C107.256 32.3102 108.323 32.0098 109.499 32.0098C111.369 32.0098 112.812 32.6064 113.828 33.7998C114.852 34.9932 115.364 36.6816 115.364 38.8652V40.1094H106.389C106.482 41.2435 106.858 42.1406 107.519 42.8008C108.187 43.4609 109.025 43.791 110.032 43.791C111.446 43.791 112.597 43.2197 113.485 42.0771L115.148 43.6641C114.598 44.485 113.862 45.124 112.939 45.5811C112.025 46.0296 110.997 46.2539 109.854 46.2539ZM109.486 34.4854C108.64 34.4854 107.954 34.7816 107.43 35.374C106.913 35.9665 106.583 36.7917 106.439 37.8496H112.317V37.6211C112.25 36.5885 111.975 35.8099 111.492 35.2852C111.01 34.752 110.341 34.4854 109.486 34.4854ZM123.413 43.791C124.183 43.791 124.822 43.5667 125.33 43.1182C125.838 42.6696 126.109 42.1152 126.143 41.4551H129.05C129.016 42.3099 128.749 43.1097 128.25 43.8545C127.751 44.5908 127.074 45.1748 126.219 45.6064C125.364 46.0381 124.441 46.2539 123.451 46.2539C121.53 46.2539 120.007 45.6318 118.881 44.3877C117.755 43.1436 117.192 41.4255 117.192 39.2334V38.916C117.192 36.8255 117.751 35.154 118.868 33.9014C119.985 32.6403 121.509 32.0098 123.438 32.0098C125.072 32.0098 126.401 32.488 127.425 33.4443C128.457 34.3923 128.999 35.6406 129.05 37.1895H126.143C126.109 36.4023 125.838 35.7549 125.33 35.2471C124.831 34.7393 124.192 34.4854 123.413 34.4854C122.414 34.4854 121.644 34.8493 121.103 35.5771C120.561 36.2965 120.286 37.3926 120.277 38.8652V39.3604C120.277 40.8499 120.544 41.9629 121.077 42.6992C121.619 43.4271 122.397 43.791 123.413 43.791ZM130.802 39.0049C130.802 37.6592 131.068 36.4489 131.602 35.374C132.135 34.2907 132.884 33.4613 133.849 32.8857C134.813 32.3018 135.922 32.0098 137.175 32.0098C139.028 32.0098 140.531 32.6064 141.682 33.7998C142.841 34.9932 143.467 36.5758 143.561 38.5479L143.573 39.2715C143.573 40.6257 143.311 41.8359 142.786 42.9023C142.27 43.9688 141.525 44.7939 140.552 45.3779C139.587 45.9619 138.47 46.2539 137.2 46.2539C135.262 46.2539 133.709 45.6107 132.541 44.3242C131.382 43.0293 130.802 41.307 130.802 39.1572V39.0049ZM133.887 39.2715C133.887 40.6849 134.179 41.7936 134.763 42.5977C135.347 43.3932 136.159 43.791 137.2 43.791C138.241 43.791 139.049 43.3848 139.625 42.5723C140.209 41.7598 140.501 40.5706 140.501 39.0049C140.501 37.6169 140.201 36.5166 139.6 35.7041C139.007 34.8916 138.199 34.4854 137.175 34.4854C136.168 34.4854 135.368 34.8874 134.775 35.6914C134.183 36.487 133.887 37.6803 133.887 39.2715ZM149.083 32.2637L149.172 33.6982C150.137 32.5726 151.457 32.0098 153.133 32.0098C154.969 32.0098 156.226 32.7122 156.903 34.1172C157.902 32.7122 159.307 32.0098 161.118 32.0098C162.633 32.0098 163.759 32.4287 164.495 33.2666C165.24 34.1045 165.621 35.3402 165.638 36.9736V46H162.553V37.0625C162.553 36.1908 162.362 35.5518 161.981 35.1455C161.601 34.7393 160.97 34.5361 160.09 34.5361C159.387 34.5361 158.812 34.7266 158.363 35.1074C157.923 35.4798 157.614 35.9707 157.437 36.5801L157.449 46H154.364V36.9609C154.322 35.3444 153.497 34.5361 151.889 34.5361C150.653 34.5361 149.777 35.0397 149.261 36.0469V46H146.176V32.2637H149.083ZM171.706 32.2637L171.795 33.6982C172.76 32.5726 174.08 32.0098 175.756 32.0098C177.592 32.0098 178.849 32.7122 179.526 34.1172C180.525 32.7122 181.93 32.0098 183.741 32.0098C185.256 32.0098 186.382 32.4287 187.118 33.2666C187.863 34.1045 188.244 35.3402 188.261 36.9736V46H185.176V37.0625C185.176 36.1908 184.985 35.5518 184.604 35.1455C184.224 34.7393 183.593 34.5361 182.713 34.5361C182.01 34.5361 181.435 34.7266 180.986 35.1074C180.546 35.4798 180.237 35.9707 180.06 36.5801L180.072 46H176.987V36.9609C176.945 35.3444 176.12 34.5361 174.512 34.5361C173.276 34.5361 172.4 35.0397 171.884 36.0469V46H168.799V32.2637H171.706ZM197.478 46.2539C195.522 46.2539 193.936 45.6403 192.717 44.4131C191.507 43.1774 190.901 41.5355 190.901 39.4873V39.1064C190.901 37.7354 191.164 36.5124 191.688 35.4375C192.222 34.3542 192.966 33.512 193.923 32.9111C194.879 32.3102 195.946 32.0098 197.122 32.0098C198.993 32.0098 200.436 32.6064 201.451 33.7998C202.475 34.9932 202.987 36.6816 202.987 38.8652V40.1094H194.012C194.105 41.2435 194.481 42.1406 195.142 42.8008C195.81 43.4609 196.648 43.791 197.655 43.791C199.069 43.791 200.22 43.2197 201.108 42.0771L202.771 43.6641C202.221 44.485 201.485 45.124 200.562 45.5811C199.648 46.0296 198.62 46.2539 197.478 46.2539ZM197.109 34.4854C196.263 34.4854 195.577 34.7816 195.053 35.374C194.536 35.9665 194.206 36.7917 194.062 37.8496H199.94V37.6211C199.873 36.5885 199.598 35.8099 199.115 35.2852C198.633 34.752 197.964 34.4854 197.109 34.4854ZM208.256 32.2637L208.345 33.8506C209.36 32.6234 210.693 32.0098 212.344 32.0098C215.204 32.0098 216.66 33.6475 216.711 36.9229V46H213.626V37.1006C213.626 36.2288 213.436 35.5856 213.055 35.1709C212.682 34.7477 212.069 34.5361 211.214 34.5361C209.97 34.5361 209.043 35.099 208.434 36.2246V46H205.349V32.2637H208.256ZM219.288 39.0303C219.288 36.9144 219.779 35.2174 220.761 33.9395C221.743 32.653 223.059 32.0098 224.709 32.0098C226.165 32.0098 227.341 32.5176 228.238 33.5332V26.5H231.323V46H228.53L228.378 44.5781C227.455 45.6953 226.224 46.2539 224.684 46.2539C223.076 46.2539 221.772 45.6064 220.773 44.3115C219.783 43.0166 219.288 41.2562 219.288 39.0303ZM222.373 39.2969C222.373 40.6934 222.64 41.7852 223.173 42.5723C223.715 43.3509 224.48 43.7402 225.471 43.7402C226.732 43.7402 227.654 43.1774 228.238 42.0518V36.1865C227.671 35.0863 226.757 34.5361 225.496 34.5361C224.497 34.5361 223.727 34.9339 223.186 35.7295C222.644 36.5166 222.373 37.7057 222.373 39.2969ZM240.591 46.2539C238.636 46.2539 237.049 45.6403 235.83 44.4131C234.62 43.1774 234.015 41.5355 234.015 39.4873V39.1064C234.015 37.7354 234.277 36.5124 234.802 35.4375C235.335 34.3542 236.08 33.512 237.036 32.9111C237.993 32.3102 239.059 32.0098 240.235 32.0098C242.106 32.0098 243.549 32.6064 244.564 33.7998C245.589 34.9932 246.101 36.6816 246.101 38.8652V40.1094H237.125C237.218 41.2435 237.595 42.1406 238.255 42.8008C238.924 43.4609 239.761 43.791 240.769 43.791C242.182 43.791 243.333 43.2197 244.222 42.0771L245.885 43.6641C245.335 44.485 244.598 45.124 243.676 45.5811C242.762 46.0296 241.733 46.2539 240.591 46.2539ZM240.223 34.4854C239.376 34.4854 238.691 34.7816 238.166 35.374C237.65 35.9665 237.32 36.7917 237.176 37.8496H243.054V37.6211C242.986 36.5885 242.711 35.8099 242.229 35.2852C241.746 34.752 241.077 34.4854 240.223 34.4854ZM247.929 39.0303C247.929 36.9144 248.42 35.2174 249.401 33.9395C250.383 32.653 251.699 32.0098 253.35 32.0098C254.805 32.0098 255.982 32.5176 256.879 33.5332V26.5H259.964V46H257.171L257.019 44.5781C256.096 45.6953 254.865 46.2539 253.324 46.2539C251.716 46.2539 250.413 45.6064 249.414 44.3115C248.424 43.0166 247.929 41.2562 247.929 39.0303ZM251.014 39.2969C251.014 40.6934 251.28 41.7852 251.813 42.5723C252.355 43.3509 253.121 43.7402 254.111 43.7402C255.372 43.7402 256.295 43.1774 256.879 42.0518V36.1865C256.312 35.0863 255.398 34.5361 254.137 34.5361C253.138 34.5361 252.368 34.9339 251.826 35.7295C251.285 36.5166 251.014 37.7057 251.014 39.2969ZM269.955 46V27.5156H275.414C277.048 27.5156 278.495 27.8796 279.756 28.6074C281.025 29.3353 282.007 30.3678 282.701 31.7051C283.395 33.0423 283.742 34.5742 283.742 36.3008V37.2275C283.742 38.9795 283.391 40.5199 282.688 41.8486C281.994 43.1774 281 44.2015 279.705 44.9209C278.419 45.6403 276.942 46 275.274 46H269.955ZM273.167 30.1055V43.4355H275.262C276.946 43.4355 278.237 42.9108 279.134 41.8613C280.039 40.8034 280.501 39.2884 280.518 37.3164V36.2881C280.518 34.2822 280.082 32.7503 279.21 31.6924C278.338 30.6344 277.073 30.1055 275.414 30.1055H273.167ZM292.692 46.2539C290.737 46.2539 289.15 45.6403 287.932 44.4131C286.721 43.1774 286.116 41.5355 286.116 39.4873V39.1064C286.116 37.7354 286.379 36.5124 286.903 35.4375C287.437 34.3542 288.181 33.512 289.138 32.9111C290.094 32.3102 291.16 32.0098 292.337 32.0098C294.207 32.0098 295.65 32.6064 296.666 33.7998C297.69 34.9932 298.202 36.6816 298.202 38.8652V40.1094H289.227C289.32 41.2435 289.696 42.1406 290.356 42.8008C291.025 43.4609 291.863 43.791 292.87 43.791C294.284 43.791 295.435 43.2197 296.323 42.0771L297.986 43.6641C297.436 44.485 296.7 45.124 295.777 45.5811C294.863 46.0296 293.835 46.2539 292.692 46.2539ZM292.324 34.4854C291.478 34.4854 290.792 34.7816 290.268 35.374C289.751 35.9665 289.421 36.7917 289.277 37.8496H295.155V37.6211C295.088 36.5885 294.812 35.8099 294.33 35.2852C293.848 34.752 293.179 34.4854 292.324 34.4854ZM308.308 42.2676C308.308 41.7174 308.079 41.2985 307.622 41.0107C307.174 40.723 306.424 40.4691 305.375 40.249C304.326 40.029 303.45 39.7497 302.747 39.4111C301.207 38.6663 300.437 37.5872 300.437 36.1738C300.437 34.9889 300.936 33.9987 301.935 33.2031C302.933 32.4076 304.203 32.0098 305.743 32.0098C307.385 32.0098 308.71 32.416 309.717 33.2285C310.732 34.041 311.24 35.0947 311.24 36.3896H308.155C308.155 35.7972 307.935 35.3063 307.495 34.917C307.055 34.5192 306.471 34.3203 305.743 34.3203C305.066 34.3203 304.512 34.4769 304.08 34.79C303.657 35.1032 303.445 35.5221 303.445 36.0469C303.445 36.5208 303.644 36.889 304.042 37.1514C304.44 37.4137 305.244 37.6803 306.454 37.9512C307.664 38.2135 308.612 38.5309 309.298 38.9033C309.992 39.2673 310.504 39.7074 310.834 40.2236C311.173 40.7399 311.342 41.3662 311.342 42.1025C311.342 43.3382 310.83 44.3411 309.806 45.1113C308.782 45.873 307.44 46.2539 305.781 46.2539C304.656 46.2539 303.653 46.0508 302.772 45.6445C301.892 45.2383 301.207 44.6797 300.716 43.9688C300.225 43.2578 299.979 42.4919 299.979 41.6709H302.976C303.018 42.3988 303.293 42.9616 303.801 43.3594C304.309 43.7487 304.981 43.9434 305.819 43.9434C306.632 43.9434 307.25 43.791 307.673 43.4863C308.096 43.1732 308.308 42.7669 308.308 42.2676ZM317.321 46H314.236V32.2637H317.321V46ZM314.046 28.6963C314.046 28.2223 314.194 27.8288 314.49 27.5156C314.795 27.2025 315.227 27.0459 315.785 27.0459C316.344 27.0459 316.775 27.2025 317.08 27.5156C317.385 27.8288 317.537 28.2223 317.537 28.6963C317.537 29.1618 317.385 29.5511 317.08 29.8643C316.775 30.1689 316.344 30.3213 315.785 30.3213C315.227 30.3213 314.795 30.1689 314.49 29.8643C314.194 29.5511 314.046 29.1618 314.046 28.6963ZM320.152 39.0303C320.152 36.8975 320.652 35.1963 321.65 33.9268C322.658 32.6488 323.991 32.0098 325.649 32.0098C327.215 32.0098 328.447 32.5557 329.344 33.6475L329.483 32.2637H332.264V45.5811C332.264 47.3838 331.701 48.8057 330.575 49.8467C329.458 50.8877 327.947 51.4082 326.043 51.4082C325.036 51.4082 324.05 51.1966 323.085 50.7734C322.129 50.3587 321.401 49.8128 320.901 49.1357L322.361 47.2822C323.309 48.4079 324.477 48.9707 325.865 48.9707C326.889 48.9707 327.698 48.6914 328.29 48.1328C328.882 47.5827 329.179 46.7702 329.179 45.6953V44.7686C328.29 45.7588 327.105 46.2539 325.624 46.2539C324.016 46.2539 322.7 45.6149 321.676 44.3369C320.66 43.0589 320.152 41.29 320.152 39.0303ZM323.225 39.2969C323.225 40.6764 323.504 41.764 324.062 42.5596C324.63 43.3467 325.412 43.7402 326.411 43.7402C327.655 43.7402 328.578 43.207 329.179 42.1406V36.0977C328.595 35.0566 327.681 34.5361 326.437 34.5361C325.421 34.5361 324.63 34.9382 324.062 35.7422C323.504 36.5462 323.225 37.7311 323.225 39.2969ZM338.307 32.2637L338.396 33.8506C339.411 32.6234 340.744 32.0098 342.395 32.0098C345.255 32.0098 346.711 33.6475 346.762 36.9229V46H343.677V37.1006C343.677 36.2288 343.486 35.5856 343.105 35.1709C342.733 34.7477 342.119 34.5361 341.265 34.5361C340.021 34.5361 339.094 35.099 338.484 36.2246V46H335.399V32.2637H338.307ZM367.036 41.6963H359.876L358.378 46H355.039L362.021 27.5156H364.903L371.898 46H368.547L367.036 41.6963ZM360.777 39.1064H366.135L363.456 31.4385L360.777 39.1064ZM380.899 35.082C380.493 35.0143 380.074 34.9805 379.643 34.9805C378.229 34.9805 377.277 35.5221 376.786 36.6055V46H373.701V32.2637H376.646L376.723 33.7998C377.467 32.6064 378.5 32.0098 379.82 32.0098C380.26 32.0098 380.624 32.069 380.912 32.1875L380.899 35.082ZM387.349 28.9248V32.2637H389.773V34.5488H387.349V42.2168C387.349 42.7415 387.45 43.1224 387.653 43.3594C387.865 43.5879 388.237 43.7021 388.771 43.7021C389.126 43.7021 389.486 43.6598 389.85 43.5752V45.9619C389.147 46.1566 388.47 46.2539 387.818 46.2539C385.449 46.2539 384.264 44.9463 384.264 42.3311V34.5488H382.004V32.2637H384.264V28.9248H387.349ZM395.423 46H392.338V32.2637H395.423V46ZM392.147 28.6963C392.147 28.2223 392.296 27.8288 392.592 27.5156C392.896 27.2025 393.328 27.0459 393.887 27.0459C394.445 27.0459 394.877 27.2025 395.182 27.5156C395.486 27.8288 395.639 28.2223 395.639 28.6963C395.639 29.1618 395.486 29.5511 395.182 29.8643C394.877 30.1689 394.445 30.3213 393.887 30.3213C393.328 30.3213 392.896 30.1689 392.592 29.8643C392.296 29.5511 392.147 29.1618 392.147 28.6963ZM404.437 43.791C405.207 43.791 405.846 43.5667 406.354 43.1182C406.861 42.6696 407.132 42.1152 407.166 41.4551H410.073C410.039 42.3099 409.773 43.1097 409.273 43.8545C408.774 44.5908 408.097 45.1748 407.242 45.6064C406.387 46.0381 405.465 46.2539 404.475 46.2539C402.553 46.2539 401.03 45.6318 399.904 44.3877C398.779 43.1436 398.216 41.4255 398.216 39.2334V38.916C398.216 36.8255 398.774 35.154 399.892 33.9014C401.009 32.6403 402.532 32.0098 404.462 32.0098C406.095 32.0098 407.424 32.488 408.448 33.4443C409.481 34.3923 410.022 35.6406 410.073 37.1895H407.166C407.132 36.4023 406.861 35.7549 406.354 35.2471C405.854 34.7393 405.215 34.4854 404.437 34.4854C403.438 34.4854 402.668 34.8493 402.126 35.5771C401.584 36.2965 401.309 37.3926 401.301 38.8652V39.3604C401.301 40.8499 401.567 41.9629 402.101 42.6992C402.642 43.4271 403.421 43.791 404.437 43.791ZM415.685 46H412.6V26.5H415.685V46ZM425.104 46.2539C423.149 46.2539 421.562 45.6403 420.344 44.4131C419.133 43.1774 418.528 41.5355 418.528 39.4873V39.1064C418.528 37.7354 418.791 36.5124 419.315 35.4375C419.849 34.3542 420.593 33.512 421.55 32.9111C422.506 32.3102 423.573 32.0098 424.749 32.0098C426.619 32.0098 428.062 32.6064 429.078 33.7998C430.102 34.9932 430.614 36.6816 430.614 38.8652V40.1094H421.639C421.732 41.2435 422.108 42.1406 422.769 42.8008C423.437 43.4609 424.275 43.791 425.282 43.791C426.696 43.791 427.847 43.2197 428.735 42.0771L430.398 43.6641C429.848 44.485 429.112 45.124 428.189 45.5811C427.275 46.0296 426.247 46.2539 425.104 46.2539ZM424.736 34.4854C423.89 34.4854 423.204 34.7816 422.68 35.374C422.163 35.9665 421.833 36.7917 421.689 37.8496H427.567V37.6211C427.5 36.5885 427.225 35.8099 426.742 35.2852C426.26 34.752 425.591 34.4854 424.736 34.4854ZM440.72 42.2676C440.72 41.7174 440.491 41.2985 440.034 41.0107C439.586 40.723 438.837 40.4691 437.787 40.249C436.738 40.029 435.862 39.7497 435.159 39.4111C433.619 38.6663 432.849 37.5872 432.849 36.1738C432.849 34.9889 433.348 33.9987 434.347 33.2031C435.345 32.4076 436.615 32.0098 438.155 32.0098C439.797 32.0098 441.122 32.416 442.129 33.2285C443.145 34.041 443.652 35.0947 443.652 36.3896H440.567C440.567 35.7972 440.347 35.3063 439.907 34.917C439.467 34.5192 438.883 34.3203 438.155 34.3203C437.478 34.3203 436.924 34.4769 436.492 34.79C436.069 35.1032 435.857 35.5221 435.857 36.0469C435.857 36.5208 436.056 36.889 436.454 37.1514C436.852 37.4137 437.656 37.6803 438.866 37.9512C440.076 38.2135 441.024 38.5309 441.71 38.9033C442.404 39.2673 442.916 39.7074 443.246 40.2236C443.585 40.7399 443.754 41.3662 443.754 42.1025C443.754 43.3382 443.242 44.3411 442.218 45.1113C441.194 45.873 439.852 46.2539 438.193 46.2539C437.068 46.2539 436.065 46.0508 435.185 45.6445C434.304 45.2383 433.619 44.6797 433.128 43.9688C432.637 43.2578 432.392 42.4919 432.392 41.6709H435.388C435.43 42.3988 435.705 42.9616 436.213 43.3594C436.721 43.7487 437.394 43.9434 438.231 43.9434C439.044 43.9434 439.662 43.791 440.085 43.4863C440.508 43.1732 440.72 42.7669 440.72 42.2676ZM452.438 41.0107C452.438 40.1559 452.67 39.373 453.136 38.6621C453.601 37.9427 454.52 37.0921 455.891 36.1104C455.171 35.2048 454.668 34.4346 454.38 33.7998C454.101 33.165 453.961 32.5514 453.961 31.959C453.961 30.5117 454.401 29.3691 455.281 28.5312C456.161 27.6849 457.346 27.2617 458.836 27.2617C460.182 27.2617 461.282 27.6595 462.137 28.4551C463 29.2422 463.432 30.2197 463.432 31.3877C463.432 32.1579 463.237 32.8688 462.848 33.5205C462.458 34.1637 461.819 34.807 460.931 35.4502L459.674 36.3643L463.241 40.5791C463.757 39.5635 464.016 38.4336 464.016 37.1895H466.694C466.694 39.4661 466.161 41.3324 465.095 42.7881L467.812 46H464.231L463.19 44.7686C461.87 45.7588 460.296 46.2539 458.468 46.2539C456.64 46.2539 455.175 45.7715 454.075 44.8066C452.983 43.8333 452.438 42.568 452.438 41.0107ZM458.557 43.791C459.598 43.791 460.571 43.444 461.477 42.75L457.439 37.9893L457.046 38.2686C456.03 39.0387 455.522 39.9189 455.522 40.9092C455.522 41.764 455.798 42.458 456.348 42.9912C456.898 43.5244 457.634 43.791 458.557 43.791ZM456.855 31.8828C456.855 32.5938 457.291 33.4867 458.163 34.5615L459.572 33.5967L459.966 33.2793C460.491 32.8138 460.753 32.2171 460.753 31.4893C460.753 31.0068 460.571 30.5964 460.207 30.2578C459.843 29.9108 459.382 29.7373 458.823 29.7373C458.222 29.7373 457.744 29.9404 457.389 30.3467C457.033 30.7529 456.855 31.265 456.855 31.8828ZM483.122 38.8779H479.542V46H476.33V27.5156H482.83C484.963 27.5156 486.609 27.9938 487.769 28.9502C488.928 29.9066 489.508 31.2904 489.508 33.1016C489.508 34.3372 489.207 35.374 488.606 36.2119C488.014 37.0413 487.185 37.6803 486.118 38.1289L490.27 45.835V46H486.829L483.122 38.8779ZM479.542 36.3008H482.843C483.926 36.3008 484.772 36.0299 485.382 35.4883C485.991 34.9382 486.296 34.1891 486.296 33.2412C486.296 32.251 486.012 31.485 485.445 30.9434C484.887 30.4017 484.049 30.1224 482.932 30.1055H479.542V36.3008ZM498.306 46.2539C496.351 46.2539 494.764 45.6403 493.545 44.4131C492.335 43.1774 491.729 41.5355 491.729 39.4873V39.1064C491.729 37.7354 491.992 36.5124 492.517 35.4375C493.05 34.3542 493.795 33.512 494.751 32.9111C495.707 32.3102 496.774 32.0098 497.95 32.0098C499.821 32.0098 501.264 32.6064 502.279 33.7998C503.303 34.9932 503.815 36.6816 503.815 38.8652V40.1094H494.84C494.933 41.2435 495.31 42.1406 495.97 42.8008C496.638 43.4609 497.476 43.791 498.483 43.791C499.897 43.791 501.048 43.2197 501.937 42.0771L503.6 43.6641C503.049 44.485 502.313 45.124 501.391 45.5811C500.477 46.0296 499.448 46.2539 498.306 46.2539ZM497.938 34.4854C497.091 34.4854 496.406 34.7816 495.881 35.374C495.365 35.9665 495.035 36.7917 494.891 37.8496H500.769V37.6211C500.701 36.5885 500.426 35.8099 499.943 35.2852C499.461 34.752 498.792 34.4854 497.938 34.4854ZM513.921 42.2676C513.921 41.7174 513.692 41.2985 513.235 41.0107C512.787 40.723 512.038 40.4691 510.988 40.249C509.939 40.029 509.063 39.7497 508.36 39.4111C506.82 38.6663 506.05 37.5872 506.05 36.1738C506.05 34.9889 506.549 33.9987 507.548 33.2031C508.547 32.4076 509.816 32.0098 511.356 32.0098C512.998 32.0098 514.323 32.416 515.33 33.2285C516.346 34.041 516.854 35.0947 516.854 36.3896H513.769C513.769 35.7972 513.549 35.3063 513.108 34.917C512.668 34.5192 512.084 34.3203 511.356 34.3203C510.679 34.3203 510.125 34.4769 509.693 34.79C509.27 35.1032 509.059 35.5221 509.059 36.0469C509.059 36.5208 509.257 36.889 509.655 37.1514C510.053 37.4137 510.857 37.6803 512.067 37.9512C513.278 38.2135 514.226 38.5309 514.911 38.9033C515.605 39.2673 516.117 39.7074 516.447 40.2236C516.786 40.7399 516.955 41.3662 516.955 42.1025C516.955 43.3382 516.443 44.3411 515.419 45.1113C514.395 45.873 513.053 46.2539 511.395 46.2539C510.269 46.2539 509.266 46.0508 508.386 45.6445C507.506 45.2383 506.82 44.6797 506.329 43.9688C505.838 43.2578 505.593 42.4919 505.593 41.6709H508.589C508.631 42.3988 508.906 42.9616 509.414 43.3594C509.922 43.7487 510.595 43.9434 511.433 43.9434C512.245 43.9434 512.863 43.791 513.286 43.4863C513.709 43.1732 513.921 42.7669 513.921 42.2676ZM519.075 39.0049C519.075 37.6592 519.342 36.4489 519.875 35.374C520.408 34.2907 521.157 33.4613 522.122 32.8857C523.087 32.3018 524.196 32.0098 525.448 32.0098C527.302 32.0098 528.804 32.6064 529.955 33.7998C531.115 34.9932 531.741 36.5758 531.834 38.5479L531.847 39.2715C531.847 40.6257 531.584 41.8359 531.06 42.9023C530.543 43.9688 529.799 44.7939 528.825 45.3779C527.86 45.9619 526.743 46.2539 525.474 46.2539C523.535 46.2539 521.982 45.6107 520.814 44.3242C519.655 43.0293 519.075 41.307 519.075 39.1572V39.0049ZM522.16 39.2715C522.16 40.6849 522.452 41.7936 523.036 42.5977C523.62 43.3932 524.433 43.791 525.474 43.791C526.515 43.791 527.323 43.3848 527.898 42.5723C528.482 41.7598 528.774 40.5706 528.774 39.0049C528.774 37.6169 528.474 36.5166 527.873 35.7041C527.281 34.8916 526.472 34.4854 525.448 34.4854C524.441 34.4854 523.641 34.8874 523.049 35.6914C522.456 36.487 522.16 37.6803 522.16 39.2715ZM542.777 44.6543C541.872 45.7207 540.585 46.2539 538.918 46.2539C537.428 46.2539 536.299 45.818 535.528 44.9463C534.767 44.0745 534.386 42.8135 534.386 41.1631V32.2637H537.471V41.125C537.471 42.8685 538.194 43.7402 539.642 43.7402C541.14 43.7402 542.151 43.2028 542.676 42.1279V32.2637H545.761V46H542.854L542.777 44.6543ZM556.095 35.082C555.688 35.0143 555.27 34.9805 554.838 34.9805C553.424 34.9805 552.472 35.5221 551.981 36.6055V46H548.896V32.2637H551.842L551.918 33.7998C552.663 32.6064 553.695 32.0098 555.016 32.0098C555.456 32.0098 555.82 32.069 556.107 32.1875L556.095 35.082ZM563.433 43.791C564.203 43.791 564.842 43.5667 565.35 43.1182C565.857 42.6696 566.128 42.1152 566.162 41.4551H569.069C569.035 42.3099 568.769 43.1097 568.27 43.8545C567.77 44.5908 567.093 45.1748 566.238 45.6064C565.383 46.0381 564.461 46.2539 563.471 46.2539C561.549 46.2539 560.026 45.6318 558.9 44.3877C557.775 43.1436 557.212 41.4255 557.212 39.2334V38.916C557.212 36.8255 557.771 35.154 558.888 33.9014C560.005 32.6403 561.528 32.0098 563.458 32.0098C565.091 32.0098 566.42 32.488 567.444 33.4443C568.477 34.3923 569.019 35.6406 569.069 37.1895H566.162C566.128 36.4023 565.857 35.7549 565.35 35.2471C564.85 34.7393 564.211 34.4854 563.433 34.4854C562.434 34.4854 561.664 34.8493 561.122 35.5771C560.58 36.2965 560.305 37.3926 560.297 38.8652V39.3604C560.297 40.8499 560.563 41.9629 561.097 42.6992C561.638 43.4271 562.417 43.791 563.433 43.791ZM577.448 46.2539C575.493 46.2539 573.906 45.6403 572.688 44.4131C571.477 43.1774 570.872 41.5355 570.872 39.4873V39.1064C570.872 37.7354 571.134 36.5124 571.659 35.4375C572.192 34.3542 572.937 33.512 573.894 32.9111C574.85 32.3102 575.916 32.0098 577.093 32.0098C578.963 32.0098 580.406 32.6064 581.422 33.7998C582.446 34.9932 582.958 36.6816 582.958 38.8652V40.1094H573.982C574.076 41.2435 574.452 42.1406 575.112 42.8008C575.781 43.4609 576.619 43.791 577.626 43.791C579.039 43.791 580.19 43.2197 581.079 42.0771L582.742 43.6641C582.192 44.485 581.456 45.124 580.533 45.5811C579.619 46.0296 578.591 46.2539 577.448 46.2539ZM577.08 34.4854C576.234 34.4854 575.548 34.7816 575.023 35.374C574.507 35.9665 574.177 36.7917 574.033 37.8496H579.911V37.6211C579.843 36.5885 579.568 35.8099 579.086 35.2852C578.604 34.752 577.935 34.4854 577.08 34.4854ZM593.063 42.2676C593.063 41.7174 592.835 41.2985 592.378 41.0107C591.929 40.723 591.18 40.4691 590.131 40.249C589.081 40.029 588.205 39.7497 587.503 39.4111C585.963 38.6663 585.192 37.5872 585.192 36.1738C585.192 34.9889 585.692 33.9987 586.69 33.2031C587.689 32.4076 588.959 32.0098 590.499 32.0098C592.141 32.0098 593.465 32.416 594.473 33.2285C595.488 34.041 595.996 35.0947 595.996 36.3896H592.911C592.911 35.7972 592.691 35.3063 592.251 34.917C591.811 34.5192 591.227 34.3203 590.499 34.3203C589.822 34.3203 589.268 34.4769 588.836 34.79C588.413 35.1032 588.201 35.5221 588.201 36.0469C588.201 36.5208 588.4 36.889 588.798 37.1514C589.196 37.4137 590 37.6803 591.21 37.9512C592.42 38.2135 593.368 38.5309 594.054 38.9033C594.748 39.2673 595.26 39.7074 595.59 40.2236C595.928 40.7399 596.098 41.3662 596.098 42.1025C596.098 43.3382 595.586 44.3411 594.562 45.1113C593.537 45.873 592.196 46.2539 590.537 46.2539C589.411 46.2539 588.409 46.0508 587.528 45.6445C586.648 45.2383 585.963 44.6797 585.472 43.9688C584.981 43.2578 584.735 42.4919 584.735 41.6709H587.731C587.774 42.3988 588.049 42.9616 588.557 43.3594C589.064 43.7487 589.737 43.9434 590.575 43.9434C591.388 43.9434 592.006 43.791 592.429 43.4863C592.852 43.1732 593.063 42.7669 593.063 42.2676Z" fill="black"/>
<path d="M37.5 0C16.8052 0 0 16.8052 0 37.5C0 58.1948 16.8052 75 37.5 75C58.1948 75 75 58.1948 75 37.5C75 16.8052 58.1948 0 37.5 0ZM37.5 2.67857C56.7472 2.67857 72.3214 18.2528 72.3214 37.5C72.3214 56.7472 56.7472 72.3214 37.5 72.3214C18.2528 72.3214 2.67857 56.7472 2.67857 37.5C2.67857 18.2528 18.2528 2.67857 37.5 2.67857ZM41.5492 18.75C40.8498 18.75 40.1342 19.0036 39.6293 19.5086C39.1243 20.0135 38.8707 20.7292 38.8707 21.4286V33.4821C38.8707 34.1815 39.1243 34.8972 39.6293 35.4021C40.1342 35.9071 40.8498 36.1607 41.5492 36.1607H53.6028C54.3022 36.1607 55.0179 35.9071 55.5228 35.4021C56.0278 34.8972 56.2814 34.1815 56.2814 33.4821V21.4286C56.2814 20.7292 56.0278 20.0135 55.5228 19.5086C55.0179 19.0036 54.3022 18.75 53.6028 18.75H41.5492ZM27.4554 18.9488C26.608 18.9488 25.7227 19.3217 25.1692 20.1521L25.1221 20.2201L18.8808 32.7026L18.8494 32.7916C18.5884 33.5745 18.7186 34.4814 19.2313 35.1406C19.744 35.7997 20.5894 36.1607 21.46 36.1607H33.7803C34.6286 36.1607 35.4444 35.711 35.8573 34.9679C36.2701 34.2248 36.1968 33.2171 35.7003 32.4724L35.784 32.6137L29.6212 20.2933L29.6945 20.4712C29.3488 19.4341 28.3027 18.9488 27.4554 18.9488ZM41.5492 21.4286H53.6028V33.4821H41.5492V21.4286ZM27.3507 21.7477L33.2206 33.4821H21.4861L27.3507 21.7477ZM27.6228 38.5725C22.7568 38.5725 18.7814 42.5427 18.7814 47.4086C18.7814 52.2746 22.7568 56.25 27.6228 56.25C32.4887 56.25 36.4589 52.2746 36.4589 47.4086C36.4589 42.5427 32.4887 38.5725 27.6228 38.5725ZM41.4132 40.0426C41.0784 40.0426 40.7446 40.1775 40.4768 40.4454C39.9411 40.9811 39.9411 41.7878 40.4768 42.3235L45.5671 47.4086L40.21 52.7658C39.6742 53.3015 39.6742 54.1082 40.21 54.6439C40.7457 54.9118 41.0146 54.9107 41.2824 54.9107C41.5503 54.9107 41.815 54.9118 42.0829 54.6439L47.44 49.2868L52.7972 54.6439C53.065 54.9118 53.335 54.9107 53.6028 54.9107C54.1385 54.9107 54.4074 54.9118 54.6753 54.6439C55.211 54.1082 55.211 53.3015 54.6753 52.7658L49.3182 47.4086L54.4085 42.3235C54.9442 41.7878 54.9442 40.9811 54.4085 40.4454C53.8728 39.9097 53.0661 39.9097 52.5303 40.4454L47.44 45.5357L42.3549 40.4454C42.0871 40.1775 41.748 40.0426 41.4132 40.0426ZM27.6228 41.251C31.0411 41.251 33.7803 43.9903 33.7803 47.4086C33.7803 50.827 31.0411 53.5714 27.6228 53.5714C24.2044 53.5714 21.46 50.827 21.46 47.4086C21.46 43.9903 24.2044 41.251 27.6228 41.251Z" fill="black"/>
</svg>
