<?xml version="1.0" standalone="no"?>
<!DOCTYPE svg PUBLIC "-//W3C//DTD SVG 20010904//EN"
 "http://www.w3.org/TR/2001/REC-SVG-20010904/DTD/svg10.dtd">
<svg version="1.0" xmlns="http://www.w3.org/2000/svg"
 width="700.000000pt" height="700.000000pt" viewBox="0 0 700.000000 700.000000"
 preserveAspectRatio="xMidYMid meet">
<metadata>
Created by potrace 1.14, written by Peter Selinger 2001-2017
</metadata>
<g transform="translate(0.000000,700.000000) scale(0.100000,-0.100000)"
fill="#000000" stroke="none">
<path d="M3278 6995 c-1 -1 -39 -5 -83 -9 -241 -18 -528 -77 -775 -157 -69
-23 -138 -47 -155 -54 -16 -7 -61 -25 -99 -39 -154 -60 -444 -214 -601 -319
-575 -387 -1016 -917 -1285 -1547 -80 -188 -168 -457 -195 -601 -3 -13 -11
-58 -20 -99 -22 -115 -30 -160 -41 -255 -26 -232 -26 -665 1 -826 2 -13 6 -46
9 -74 9 -78 23 -156 51 -285 148 -685 547 -1362 1086 -1839 242 -215 449 -357
739 -508 326 -170 733 -299 1099 -349 25 -3 57 -8 71 -10 163 -25 682 -25 842
1 13 2 46 7 73 10 72 10 86 12 120 19 17 3 44 8 60 11 532 101 1082 357 1516
707 153 124 357 320 454 438 21 25 40 47 44 50 12 9 137 174 193 255 108 155
243 396 312 555 16 36 36 83 46 105 54 123 147 418 176 560 16 77 54 301 60
350 4 33 9 76 11 95 8 71 10 517 3 595 -17 171 -22 220 -25 225 -2 3 -6 30
-10 60 -3 30 -10 71 -15 90 -5 19 -12 51 -15 70 -11 66 -64 265 -95 360 -107
323 -267 646 -455 915 -59 85 -212 281 -253 324 -171 180 -267 273 -367 356
-32 28 -70 59 -83 70 -54 46 -269 195 -364 252 -382 229 -835 395 -1248 458
-25 4 -54 9 -65 11 -10 2 -49 6 -85 10 -36 3 -78 8 -95 11 -32 5 -531 13 -537
8z m512 -259 c19 -3 58 -8 85 -10 245 -24 546 -99 810 -203 749 -295 1359
-853 1721 -1574 154 -308 270 -680 310 -994 3 -27 8 -58 10 -68 18 -95 24
-481 11 -644 -93 -1139 -767 -2136 -1788 -2649 -241 -121 -577 -237 -804 -278
-101 -19 -146 -26 -190 -31 -27 -4 -61 -8 -74 -10 -116 -19 -498 -26 -646 -12
-156 15 -181 18 -265 33 -690 117 -1301 437 -1794 939 -432 439 -745 1032
-862 1629 -11 56 -24 136 -30 181 -3 28 -8 57 -9 65 -18 97 -26 495 -12 650
15 171 42 349 73 473 2 9 6 25 8 35 48 210 143 468 254 688 389 772 1068 1358
1888 1629 224 74 524 135 744 151 52 3 96 8 98 9 6 6 426 -2 462 -9z"/>
<path d="M3835 5240 c-81 -22 -117 -42 -154 -87 -61 -73 -61 -78 -61 -723 0
-676 -1 -663 79 -741 84 -81 63 -79 736 -79 648 0 650 0 723 58 21 17 51 54
67 84 l29 53 0 625 c0 608 -1 626 -21 670 -27 59 -74 107 -132 133 -45 20 -60
21 -626 22 -500 0 -589 -2 -640 -15z m1163 -247 c5 -8 8 -1081 3 -1114 -1 -3
-254 -5 -563 -5 l-563 1 -1 560 c-1 308 2 562 7 565 16 11 1111 3 1117 -7z"/>
<path d="M2515 5231 c-57 -14 -165 -87 -165 -111 0 -5 -130 -272 -290 -594
-159 -322 -293 -603 -296 -625 -16 -103 50 -212 152 -250 53 -20 73 -21 668
-21 677 0 671 0 736 63 66 64 79 151 37 253 -48 117 -586 1170 -616 1205 -51
62 -153 98 -226 80z m319 -804 c146 -290 266 -531 266 -535 0 -10 -1079 -10
-1082 0 -5 12 537 1077 543 1070 4 -4 126 -244 273 -535z"/>
<path d="M2435 3385 c-383 -69 -668 -398 -679 -783 -14 -478 382 -867 861
-845 89 3 281 50 303 73 3 3 18 11 34 18 78 35 196 132 268 222 76 94 149 262
166 380 13 91 5 262 -16 342 -50 185 -155 337 -314 451 -175 125 -412 179
-623 142z m235 -248 c103 -13 229 -77 311 -158 85 -85 140 -189 164 -308 11
-53 8 -193 -5 -226 -6 -17 -11 -32 -11 -35 3 -18 -36 -108 -68 -157 -79 -122
-190 -203 -332 -243 -401 -111 -787 231 -722 640 30 187 152 356 314 434 117
55 212 70 349 53z"/>
<path d="M3821 3259 c-54 -22 -87 -93 -70 -152 7 -25 75 -99 254 -278 134
-134 245 -247 245 -251 0 -5 -119 -127 -265 -273 l-265 -266 0 -46 c0 -75 39
-119 110 -124 69 -4 69 -4 340 266 l265 264 264 -264 c149 -149 273 -265 285
-267 11 -2 42 -1 68 3 53 6 83 34 94 86 13 65 -6 89 -276 359 l-260 259 244
245 c134 135 249 255 255 267 26 52 0 137 -51 164 -30 16 -96 13 -126 -7 -13
-8 -129 -121 -258 -250 -129 -129 -238 -234 -242 -234 -4 0 -113 106 -242 236
-129 129 -246 241 -260 249 -38 19 -82 25 -109 14z"/>
</g>
</svg>
